<?xml version="1.0" standalone="no"?>
<!DOCTYPE svg PUBLIC "-//W3C//DTD SVG 20010904//EN"
 "http://www.w3.org/TR/2001/REC-SVG-20010904/DTD/svg10.dtd">
<svg version="1.0" xmlns="http://www.w3.org/2000/svg"
 width="1902.000000pt" height="1162.000000pt" viewBox="0 0 1902.000000 1162.000000"
 preserveAspectRatio="xMidYMid meet">

<g transform="translate(0.000000,1162.000000) scale(0.100000,-0.100000)"
fill="#000000" stroke="none">
<path d="M16973 7261 c-70 -24 -129 -66 -165 -118 -62 -91 -58 14 -56 -1638
l3 -1510 26 -55 c76 -159 256 -230 396 -156 59 31 133 106 156 157 35 80 37
101 37 508 l0 407 49 48 c41 40 53 47 82 44 31 -3 39 -13 137 -168 58 -91 141
-222 186 -292 44 -69 112 -175 150 -235 184 -288 214 -332 265 -386 79 -83
137 -112 226 -111 56 0 81 6 122 27 115 59 178 144 177 237 -1 54 -28 149 -58
208 -8 16 -163 252 -344 523 -180 272 -345 520 -366 551 -30 45 -37 65 -34 95
3 35 16 51 143 173 77 74 200 190 272 258 133 124 182 189 213 285 17 53 -1
116 -52 185 -66 88 -154 142 -234 142 -96 0 -191 -56 -354 -208 -63 -59 -169
-157 -235 -217 -66 -60 -154 -141 -195 -181 -60 -58 -82 -73 -110 -76 l-35 -3
-5 630 c-5 607 -6 632 -25 675 -47 104 -109 165 -203 200 -65 24 -101 25 -169
1z"/>
<path d="M9290 7254 c-71 -5 -130 -21 -209 -58 -38 -17 -118 -105 -142 -155
-12 -25 -30 -75 -40 -111 -18 -62 -19 -132 -19 -1621 l0 -1557 23 -4 c12 -2
393 -4 847 -3 820 1 880 3 1035 36 188 40 389 148 495 266 103 114 198 317
228 488 32 179 36 244 24 369 -13 123 -34 245 -51 288 -5 13 -19 50 -32 83
-47 123 -159 267 -263 338 -14 10 -26 24 -26 32 0 8 22 42 48 75 69 84 120
199 153 340 20 85 18 347 -4 445 -61 271 -136 405 -300 536 -92 73 -252 152
-352 173 -44 10 -96 22 -115 28 -33 11 -1162 20 -1300 12z m1220 -665 c79 -26
121 -54 164 -110 71 -92 91 -217 56 -346 -27 -100 -66 -150 -154 -196 l-61
-32 -490 0 -490 0 -3 340 c-1 187 0 346 3 352 3 10 103 13 458 13 433 0 457
-1 517 -21z m-18 -1350 c149 -30 201 -53 269 -116 99 -92 124 -160 124 -333
-1 -123 -1 -126 -37 -200 -38 -77 -99 -146 -153 -172 -28 -14 -56 -22 -151
-47 -61 -16 -986 -15 -1002 1 -9 9 -12 119 -12 435 0 391 1 423 18 432 24 14
873 14 944 0z"/>
<path d="M14548 6563 c-21 -2 -38 -8 -38 -14 0 -5 -8 -9 -17 -9 -32 0 -117
-74 -154 -135 -52 -83 -50 -42 -47 -1265 l3 -1145 29 -58 c32 -65 95 -125 164
-159 52 -25 152 -36 185 -20 12 5 41 18 65 27 52 22 126 100 155 163 22 47 22
52 27 829 l5 783 85 85 c46 47 88 85 93 85 4 0 17 9 28 19 26 24 128 74 197
96 39 13 76 16 150 13 83 -3 103 -8 137 -30 60 -39 83 -68 105 -136 19 -59 21
-98 29 -864 7 -598 12 -811 21 -833 34 -83 58 -120 100 -157 58 -52 118 -79
190 -85 48 -5 67 -1 116 21 82 38 156 119 183 203 21 62 21 80 21 792 0 422
-4 773 -10 832 -12 123 -34 238 -54 282 -8 18 -22 57 -31 87 -36 115 -103 218
-206 317 -82 78 -114 101 -207 145 -150 70 -341 97 -510 72 -53 -8 -108 -18
-122 -23 -14 -4 -43 -14 -65 -21 -55 -16 -154 -55 -190 -74 -17 -9 -44 -16
-62 -16 -25 0 -36 7 -52 34 -68 110 -196 172 -323 159z"/>
<path d="M12715 6500 c-199 -34 -298 -65 -440 -138 -234 -120 -383 -260 -421
-399 -26 -96 -27 -102 -13 -151 39 -144 156 -251 273 -252 64 0 225 75 271
126 16 19 187 128 230 148 114 52 231 80 340 80 91 1 105 -2 158 -28 86 -43
147 -129 162 -228 6 -40 4 -47 -12 -51 -10 -3 -92 -9 -183 -12 -91 -3 -192
-12 -225 -20 -33 -8 -103 -24 -155 -35 -160 -36 -301 -93 -420 -169 -30 -20
-62 -40 -71 -46 -161 -99 -290 -290 -367 -545 -35 -117 -18 -353 37 -490 61
-153 95 -206 197 -307 65 -64 100 -90 166 -121 173 -82 305 -109 488 -99 92 5
285 48 305 68 5 5 16 9 24 9 8 0 57 20 108 45 113 55 155 59 173 15 15 -36
100 -115 132 -123 13 -3 50 -13 83 -22 51 -15 67 -15 110 -5 139 35 229 132
256 275 15 81 6 1582 -10 1650 -6 28 -16 75 -22 105 -16 80 -44 162 -92 270
-22 49 -97 146 -159 206 -126 123 -247 188 -448 240 -93 25 -346 27 -475 4z
m593 -1542 c20 -17 10 -81 -29 -174 -65 -157 -248 -300 -434 -340 -98 -22
-229 -18 -303 8 -101 35 -148 94 -158 197 -11 105 47 185 170 235 84 33 191
64 251 72 183 24 474 25 503 2z"/>
</g>
</svg>
